#!OML:ASF F:\VICON\USERDATA\INSTALL\rory3\rory3.ASF
:FULLY-SPECIFIED
:DEGREES
4107
root -2.06458 17.8131 0.394861 6.42316 -3.70712 1.65868
lowerback 7.06848 -1.02131 -1.26847
upperback 0.749285 -1.40589 1.54841
thorax -3.11882 -0.675058 2.4475
lowerneck -20.7013 -12.8647 -13.5654
upperneck 17.216 -16.9011 13.6649
head 11.3953 -7.18474 4.17886
rclavicle 1.3418e-014 4.37326e-015
rhumerus 10.0281 -11.3967 -50.5009
rradius 33.7026
rwrist 19.2134
rhand -31.0963 -1.20638
rfingers 7.12502
rthumb -4.37614 -31.1412
lclavicle 1.3418e-014 4.37326e-015
lhumerus -38.2727 3.02366 76.557
lradius 59.4078
lwrist -5.01432
lhand -25.1781 23.8197
lfingers 7.12502
lthumb 1.33952 -306.205
rfemur -23.1652 -1.99585 17.5953
rtibia 34.5363
rfoot -13.6097 0.858696
rtoes 6.57732
lfemur -9.12474 -2.99415 -11.5324
ltibia 18.133
lfoot -6.60314 28.2105
ltoes -13.0805
4108
root -2.08891 17.8161 0.400357 6.47241 -4.15889 1.99849
lowerback 7.04768 -1.12134 -1.54052
upperback 0.72956 -1.5588 1.58655
thorax -3.11146 -0.747499 2.65435
lowerneck -20.8755 -12.7206 -13.5059
upperneck 17.3885 -16.6272 13.3373
head 11.4071 -7.08121 4.10384
rclavicle 2.88238e-015 -1.51076e-014
rhumerus 8.77711 -10.5178 -50.7955
rradius 33.9667
rwrist 19.6768
rhand -31.2322 -1.36123
rfingers 7.12502
rthumb -4.50734 -31.2933
lclavicle 2.88238e-015 -1.51076e-014
lhumerus -37.9563 3.10682 76.5663
lradius 59.2013
lwrist -5.31619
lhand -24.931 23.871
lfingers 7.12502
lthumb 1.57823 -306.155
rfemur -23.3525 -1.85487 17.2919
rtibia 34.6781
rfoot -13.5812 1.10733
rtoes 6.62849
lfemur -8.95217 -3.03101 -11.8837
ltibia 17.9185
lfoot -6.54806 28.6342
ltoes -14.0873
4109
root -2.11307 17.8147 0.40478 6.52675 -4.49505 2.08056
lowerback 7.01049 -1.25334 -1.51872
upperback 0.744662 -1.7282 1.72257
thorax -3.06192 -0.832267 2.79737
lowerneck -21.0016 -12.6039 -13.6163
upperneck 17.465 -16.3666 13.1452
head 11.4082 -6.98483 4.10176
rclavicle 2.27608e-014 7.15625e-015
rhumerus 7.49672 -9.5094 -50.9993
rradius 34.3012
rwrist 19.6493
rhand -31.5639 -1.06275
rfingers 7.12502
rthumb -4.82763 -30.9877
lclavicle 2.27608e-014 7.15625e-015
lhumerus -37.6424 3.17098 76.6732
lradius 59.0954
lwrist -5.50577
lhand -25.0132 23.6647
lfingers 7.12502
lthumb 1.49879 -306.361
rfemur -23.5155 -1.73561 17.2882
rtibia 34.8133
rfoot -13.5452 1.34483
rtoes 6.90557
lfemur -8.8354 -2.87664 -11.9218
ltibia 17.7631
lfoot -6.45921 28.7711
ltoes -15.8008
4110
root -2.14113 17.8132 0.406457 6.52939 -4.88072 2.21832
lowerback 7.0247 -1.33539 -1.56313
upperback 0.808585 -1.83908 1.79286
thorax -2.99352 -0.888258 2.90454
lowerneck -21.1601 -12.4846 -13.5909
upperneck 17.4303 -16.1094 12.8941
head 11.3559 -6.88895 4.05479
rclavicle -1.0635e-014 3.97569e-015
rhumerus 6.12703 -8.55181 -51.3023
rradius 34.8596
rwrist 19.1914
rhand -31.9422 -1.24169
rfingers 7.12502
rthumb -5.19293 -31.1581
lclavicle -1.0635e-014 3.97569e-015
lhumerus -37.301 3.15242 76.7253
lradius 59.0589
lwrist -5.64484
lhand -25.1555 23.2199
lfingers 7.12502
lthumb 1.3614 -306.805
rfemur -23.6294 -1.51752 17.2338
rtibia 34.9292
rfoot -13.5035 1.51695
rtoes 6.84093
lfemur -8.66416 -2.58947 -12.0245
ltibia 17.6376
lfoot -6.29285 28.8506
ltoes -16.5131
4111
root -2.17042 17.8134 0.410927 6.54313 -5.33578 2.38492
lowerback 7.02366 -1.42715 -1.68271
upperback 0.857773 -1.96793 1.8839
thorax -2.92697 -0.952249 3.07692
lowerneck -21.3842 -12.348 -13.5893
upperneck 17.485 -15.8048 12.5725
head 11.3374 -6.77631 3.99348
rclavicle 2.40529e-014 0
rhumerus 4.99218 -7.63437 -51.7607
rradius 35.3159
rwrist 18.7239
rhand -32.2774 -1.59899
rfingers 7.12502
rthumb -5.51656 -31.5072
lclavicle 2.40529e-014 0
lhumerus -37.0289 3.24352 76.7654
lradius 58.9979
lwrist -5.78951
lhand -25.5192 22.3477
lfingers 7.12502
lthumb 1.01012 -307.675
rfemur -23.7414 -1.21155 17.132
rtibia 34.998
rfoot -13.4877 1.62892
rtoes 6.97985
lfemur -8.51109 -2.37795 -12.1538
ltibia 17.5494
lfoot -6.34413 29.0409
ltoes -15.4966
4112
root -2.19583 17.818 0.420292 6.5382 -5.81008 2.59936
lowerback 6.96699 -1.50991 -1.81553
upperback 0.910027 -2.0858 1.96046
thorax -2.82601 -1.01153 3.23851
lowerneck -21.6292 -12.1813 -13.5107
upperneck 17.5984 -15.4631 12.1602
head 11.3245 -6.65061 3.89454
rclavicle 6.14245e-014 1.59028e-015
rhumerus 3.84664 -6.62919 -52.2508
rradius 35.8987
rwrist 17.8787
rhand -32.7176 -2.10472
rfingers 7.12502
rthumb -5.94154 -32.0014
lclavicle 6.14245e-014 1.59028e-015
lhumerus -36.7012 3.47657 76.8378
lradius 58.8566
lwrist -6.39262
lhand -25.7698 21.2716
lfingers 7.12502
lthumb 0.768061 -308.75
rfemur -23.7999 -0.944294 16.9642
rtibia 35.0232
rfoot -13.4575 1.76555
rtoes 7.01304
lfemur -8.31717 -2.24112 -12.3672
ltibia 17.4566
lfoot -6.3857 29.3565
ltoes -14.716
4113
root -2.21779 17.8265 0.431242 6.56677 -6.29792 2.80754
lowerback 6.8543 -1.60575 -1.88613
upperback 0.960244 -2.21621 2.02134
thorax -2.69712 -1.07844 3.34739
lowerneck -21.9477 -11.9636 -13.3731
upperneck 17.7821 -15.0561 11.7047
head 11.3352 -6.4931 3.78176
rclavicle 3.77691e-015 7.95139e-015
rhumerus 2.65482 -5.76375 -52.8841
rradius 36.6338
rwrist 17.1199
rhand -32.9391 -2.54252
rfingers 7.12502
rthumb -6.15542 -32.4331
lclavicle 3.77691e-015 7.95139e-015
lhumerus -36.3716 3.569 76.9028
lradius 58.7715
lwrist -6.66252
lhand -25.8437 21.0042
lfingers 7.12502
lthumb 0.696725 -309.017
rfemur -23.8589 -0.738585 16.7798
rtibia 34.9933
rfoot -13.3568 2.03036
rtoes 7.5062
lfemur -8.17492 -2.11964 -12.588
ltibia 17.3894
lfoot -6.35111 29.6994
ltoes -14.684
4114
root -2.24117 17.8349 0.440503 6.56689 -6.73607 2.93601
lowerback 6.83928 -1.74039 -1.87357
upperback 0.950085 -2.39186 2.11028
thorax -2.68348 -1.16601 3.44725
lowerneck -22.1485 -11.7494 -13.3914
upperneck 18.0132 -14.6444 11.3256
head 11.365 -6.34073 3.72526
rclavicle 2.8625e-014 -8.74653e-015
rhumerus 1.43131 -5.03624 -53.6417
rradius 37.3495
rwrist 16.4859
rhand -32.6525 -2.59185
rfingers 7.12502
rthumb -5.87877 -32.4903
lclavicle 2.8625e-014 -8.74653e-015
lhumerus -36.1209 3.63688 76.9591
lradius 58.5516
lwrist -6.64513
lhand -26.2162 20.7868
lfingers 7.12502
lthumb 0.336918 -309.234
rfemur -23.8557 -0.581874 16.7153
rtibia 34.9006
rfoot -13.2078 2.24059
rtoes 7.55261
lfemur -8.09226 -1.98614 -12.6968
ltibia 17.4496
lfoot -6.25103 29.9467
ltoes -14.9756
4115
root -2.26782 17.8396 0.444812 6.4835 -7.1218 2.9562
lowerback 7.01397 -1.86767 -1.83777
upperback 0.933299 -2.55531 2.27236
thorax -2.78064 -1.24547 3.61737
lowerneck -22.2596 -11.5417 -13.3899
upperneck 18.1388 -14.2249 10.8634
head 11.3307 -6.19931 3.63882
rclavicle -8.15017e-015 -3.4191e-014
rhumerus 0.158928 -4.32706 -54.3308
rradius 38.184
rwrist 15.8183
rhand -32.27 -2.63528
rfingers 7.12502
rthumb -5.50938 -32.5437
lclavicle -8.15017e-015 -3.4191e-014
lhumerus -35.8891 3.5503 77.1068
lradius 58.3558
lwrist -6.4928
lhand -24.2147 23.5331
lfingers 7.12502
lthumb 2.27005 -306.499
rfemur -23.7616 -0.273878 16.7857
rtibia 34.7751
rfoot -13.1238 2.20834
rtoes 7.48967
lfemur -8.02573 -1.79024 -12.6436
ltibia 17.6543
lfoot -6.03679 30.0619
ltoes -15.2532
4116
root -2.29265 17.8406 0.448275 6.43995 -7.61129 2.76252
lowerback 7.17354 -1.97191 -1.58305
upperback 0.930282 -2.66952 2.4693
thorax -2.86653 -1.3029 3.69591
lowerneck -22.3004 -11.3209 -13.412
upperneck 18.1871 -13.8042 10.4899
head 11.2674 -6.05299 3.5901
rclavicle -6.87795e-014 2.78299e-014
rhumerus -1.05138 -3.63369 -55.1172
rradius 39.079
rwrist 15.2654
rhand -32.4049 -2.60734
rfingers 7.12502
rthumb -5.63969 -32.5123
lclavicle -6.87795e-014 2.78299e-014
lhumerus -35.6568 3.48742 77.2376
lradius 58.1792
lwrist -6.44053
lhand -24.8188 22.8338
lfingers 7.12502
lthumb 1.68655 -307.193
rfemur -23.6855 0.143029 17.0931
rtibia 34.6099
rfoot -13.0182 2.11139
rtoes 6.88587
lfemur -7.98571 -1.35078 -12.3768
ltibia 17.9547
lfoot -5.82564 30.0558
ltoes -15.3856
4117
root -2.31471 17.8395 0.450652 6.44608 -8.23492 2.65896
lowerback 7.22306 -2.0508 -1.39749
upperback 0.95857 -2.75606 2.62257
thorax -2.85968 -1.34806 3.75998
lowerneck -22.3494 -11.11 -13.464
upperneck 18.1736 -13.3894 10.1515
head 11.1908 -5.90766 3.55619
rclavicle -3.26007e-014 0
rhumerus -2.11516 -2.99223 -56.0432
rradius 39.9686
rwrist 14.7798
rhand -32.6197 -2.1032
rfingers 7.12502
rthumb -5.8471 -32.0025
lclavicle -3.26007e-014 0
lhumerus -35.3923 3.49577 77.3638
lradius 58.0859
lwrist -6.44338
lhand -25.7971 21.3956
lfingers 7.12502
lthumb 0.741694 -308.626
rfemur -23.7048 0.561696 17.2631
rtibia 34.45
rfoot -12.788 2.32161
rtoes 7.57739
lfemur -7.97917 -1.03908 -12.2233
ltibia 18.2477
lfoot -5.94229 30.2846
ltoes -15.3666
4118
root -2.33619 17.8505 0.455687 6.54178 -8.80737 2.63403
lowerback 7.10578 -2.13042 -1.19831
upperback 1.01761 -2.84522 2.70902
thorax -2.73192 -1.39716 3.73799
lowerneck -22.6212 -10.9297 -13.3577
upperneck 18.2479 -13.0189 9.69714
head 11.1728 -5.7759 3.43888
rclavicle -4.7112e-014 2.06736e-014
rhumerus -3.17454 -2.35808 -56.9853
rradius 40.825
rwrist 14.4643
rhand -32.8527 -1.74996
rfingers 7.12502
rthumb -6.07196 -31.6429
lclavicle -4.7112e-014 2.06736e-014
lhumerus -34.9341 3.41459 77.487
lradius 57.8764
lwrist -6.47386
lhand -24.6234 22.7986
lfingers 7.12502
lthumb 1.87525 -307.23
rfemur -23.8114 0.974336 17.326
rtibia 34.3131
rfoot -12.5935 2.51455
rtoes 8.10428
lfemur -8.07965 -0.974971 -12.1552
ltibia 18.4718
lfoot -5.98587 30.6397
ltoes -16.1371
4119
root -2.35656 17.8629 0.461088 6.5662 -9.35574 2.888
lowerback 7.0138 -2.22864 -1.27037
upperback 1.07564 -2.98192 2.73987
thorax -2.60536 -1.46747 3.81592
lowerneck -22.8955 -10.7014 -13.2334
upperneck 18.3416 -12.5831 9.21961
head 11.1541 -5.61696 3.32288
rclavicle -1.96797e-014 5.56597e-015
rhumerus -4.24916 -1.57735 -57.8636
rradius 41.749
rwrist 14.3899
rhand -33.083 -1.96541
rfingers 7.12502
rthumb -6.29435 -31.8519
lclavicle -1.96797e-014 5.56597e-015
lhumerus -34.4499 3.3674 77.6358
lradius 57.6121
lwrist -6.52753
lhand -23.6618 23.9529
lfingers 7.12502
lthumb 2.80397 -306.086
rfemur -23.9044 1.24448 17.0928
rtibia 34.2361
rfoot -12.4404 2.67281
rtoes 8.0509
lfemur -8.07685 -0.835159 -12.4042
ltibia 18.5526
lfoot -5.64113 30.7929
ltoes -16.6876
4120
root -2.37479 17.8674 0.463413 6.62114 -9.85639 3.20489
lowerback 6.94858 -2.33231 -1.46206
upperback 1.05569 -3.1323 2.8162
thorax -2.5638 -1.54137 4.01318
lowerneck -23.0867 -10.4681 -13.2111
upperneck 18.4493 -12.128 8.77815
head 11.1367 -5.45589 3.24144
rclavicle 4.37326e-015 -3.10104e-014
rhumerus -5.34173 -0.545428 -58.5895
rradius 42.7274
rwrist 14.2509
rhand -33.1981 -2.62912
rfingers 7.12502
rthumb -6.40549 -32.5123
lclavicle 4.37326e-015 -3.10104e-014
lhumerus -34.0093 3.24572 77.9176
lradius 57.3701
lwrist -6.74299
lhand -24.0748 23.9068
lfingers 7.12502
lthumb 2.40511 -306.127
rfemur -24.0683 1.35591 16.8054
rtibia 34.1797
rfoot -12.2619 2.91178
rtoes 8.02864
lfemur -8.0287 -0.525277 -12.7166
ltibia 18.5834
lfoot -5.51024 30.7825
ltoes -15.7162
4121
root -2.39415 17.8706 0.467545 6.64624 -10.369 3.46797
lowerback 6.94901 -2.4273 -1.58724
upperback 0.989382 -3.26561 2.88432
thorax -2.61104 -1.6051 4.16805
lowerneck -23.1886 -10.2155 -13.0684
upperneck 18.5504 -11.6547 8.16042
head 11.0806 -5.30274 3.08243
rclavicle -1.94809e-014 1.59028e-015
rhumerus -6.54337 0.645068 -59.391
rradius 43.7962
rwrist 13.9867
rhand -33.6592 -3.25981
rfingers 7.12502
rthumb -6.85055 -33.129
lclavicle -1.94809e-014 1.59028e-015
lhumerus -33.5938 2.98944 78.1561
lradius 57.0628
lwrist -7.16902
lhand -24.5003 23.6768
lfingers 7.12502
lthumb 1.99421 -306.353
rfemur -24.2056 1.56802 16.57
rtibia 34.1576
rfoot -12.1166 3.06306
rtoes 7.98653
lfemur -7.96659 -0.127856 -12.9759
ltibia 18.5941
lfoot -4.79269 30.6314
ltoes -16.858
